<?xml version="1.0" encoding="utf-8"?>
<!-- Generator: Adobe Illustrator 24.3.0, SVG Export Plug-In . SVG Version: 6.00 Build 0)  -->
<svg version="1.1" id="Calque_1" xmlns="http://www.w3.org/2000/svg" xmlns:xlink="http://www.w3.org/1999/xlink" x="0px" y="0px"
	 viewBox="0 0 512 220" style="enable-background:new 0 0 512 220;" xml:space="preserve">
<style type="text/css">
	.st0{filter:url(#Adobe_OpacityMaskFilter);}
	.st1{fill:url(#SVGID_2_);}
	.st2{opacity:0.88;mask:url(#SVGID_1_);fill:#020203;enable-background:new    ;}
	.st3{fill:url(#SVGID_3_);}
	.st4{fill:url(#SVGID_4_);}
	.st5{fill:url(#SVGID_5_);}
	.st6{fill:url(#SVGID_6_);}
	.st7{fill:url(#SVGID_7_);}
	.st8{fill:url(#SVGID_8_);}
	.st9{fill:url(#SVGID_9_);}
	.st10{fill:url(#SVGID_10_);}
	.st11{fill:url(#SVGID_11_);}
	.st12{fill:#020203;}
	.st13{font-family:'TrebuchetMS';}
	.st14{font-size:67.3834px;}
</style>
<g>
	<defs>
		<filter id="Adobe_OpacityMaskFilter" filterUnits="userSpaceOnUse" x="6.3" y="153.19" width="157.99" height="56.94">
			<feColorMatrix  type="matrix" values="1 0 0 0 0  0 1 0 0 0  0 0 1 0 0  0 0 0 1 0"/>
		</filter>
	</defs>
	<mask maskUnits="userSpaceOnUse" x="6.3" y="153.19" width="157.99" height="56.94" id="SVGID_1_">
		<g class="st0">
			
				<radialGradient id="SVGID_2_" cx="67.2246" cy="-19329.0469" r="51.6993" gradientTransform="matrix(1.528 0 0 -0.5507 -17.4194 -10462.4248)" gradientUnits="userSpaceOnUse">
				<stop  offset="0" style="stop-color:#FFFFFF"/>
				<stop  offset="1" style="stop-color:#020203"/>
			</radialGradient>
			<ellipse class="st1" cx="85.3" cy="181.65" rx="78.99" ry="28.47"/>
		</g>
	</mask>
	<ellipse class="st2" cx="85.3" cy="181.65" rx="78.99" ry="28.47"/>
	<g>
		
			<linearGradient id="SVGID_3_" gradientUnits="userSpaceOnUse" x1="110.0951" y1="187.8902" x2="77.159" y2="96.439" gradientTransform="matrix(1 0 0 -1 0 222)">
			<stop  offset="0" style="stop-color:#A6CA62"/>
			<stop  offset="1" style="stop-color:#47AE4B"/>
		</linearGradient>
		<path class="st3" d="M89.85,169.68c-3.58-0.26-8.91-7.97-10.65-11.44c-3.84-7.6-2.84-15.33-0.39-23.32
			c4.18-13.7,8.62-28.39,10.75-42.9c1.92-13.17,2.97-27.44,0.55-40.61c-1.47-7.99-4.42-15.3-6.57-22.95
			c7.39,4.99,13.54,17.19,17.4,26.23c3.76,8.86,7.2,21.84,5.68,31.83c-3.02,20.14-16.38,35.2-18.95,55.34
			C86.75,148.78,85.15,164.34,89.85,169.68z"/>
		
			<linearGradient id="SVGID_4_" gradientUnits="userSpaceOnUse" x1="110.0654" y1="187.9009" x2="77.1292" y2="96.4497" gradientTransform="matrix(1 0 0 -1 0 222)">
			<stop  offset="0" style="stop-color:#9AC557"/>
			<stop  offset="1" style="stop-color:#33A448"/>
		</linearGradient>
		<path class="st4" d="M89.33,169c0.16,0.24,0.29,0.47,0.47,0.68c-3.55-0.5-8.52-8.6-10.12-12.2c-3.47-7.86-2.13-15.51,0.66-23.29
			c4.81-13.38,9.91-27.73,12.67-42.03c2.52-13.01,4.21-27.18,2.39-40.51c-0.6-4.47-1.68-8.75-2.81-13.01
			c-2.71-4.21-5.78-7.89-9.1-10.12c2.18,7.65,5.13,14.96,6.57,22.95c2.42,13.17,1.39,27.44-0.55,40.61
			c-2.13,14.48-6.55,29.21-10.75,42.9c-2.44,7.99-3.44,15.72,0.39,23.32c1.76,3.47,7.07,11.2,10.65,11.44
			C89.67,169.47,89.49,169.23,89.33,169z"/>
		
			<linearGradient id="SVGID_5_" gradientUnits="userSpaceOnUse" x1="-380.6531" y1="-21.1044" x2="-416.133" y2="-119.6185" gradientTransform="matrix(0.9945 -0.1052 -0.1052 -0.9945 505.6402 -17.3625)">
			<stop  offset="0" style="stop-color:#56B364"/>
			<stop  offset="1" style="stop-color:#019447"/>
		</linearGradient>
		<path class="st5" d="M129.47,82.43c-2.05-12.28-5.86-28.1-12.7-37.7c1.92,2.68,2.18,12.17,2.58,15.77
			c0.55,5.05,0.79,9.96,0.05,14.98c-2.18,14.43-7.07,27.81-12.96,40.4c-5.81,12.38-13.91,23.79-17.35,37.62
			c-1.05,4.21-2.47,12.41-1.1,18.09c1,0.76,2.02,1.45,3.08,2.1c1.6-7.31,6.1-14.59,8.49-20.37c5.1-12.33,14.56-21.63,20.79-33.1
			C126.63,108.64,131.86,96.84,129.47,82.43z"/>
		<g>
			
				<linearGradient id="SVGID_6_" gradientUnits="userSpaceOnUse" x1="91.8333" y1="50.9122" x2="91.1306" y2="48.961" gradientTransform="matrix(1 0 0 -1 0 222)">
				<stop  offset="0" style="stop-color:#46AA58"/>
				<stop  offset="1" style="stop-color:#008443"/>
			</linearGradient>
			<path class="st6" d="M90.91,173.57c0.05,0.03,0.11,0.05,0.13,0.08c0.18-0.84,0.42-1.68,0.66-2.52
				C91.4,171.94,91.14,172.75,90.91,173.57z"/>
			
				<linearGradient id="SVGID_7_" gradientUnits="userSpaceOnUse" x1="127.2893" y1="177.5965" x2="93.0536" y2="82.5369" gradientTransform="matrix(1 0 0 -1 0 222)">
				<stop  offset="0" style="stop-color:#46AA58"/>
				<stop  offset="1" style="stop-color:#008443"/>
			</linearGradient>
			<path class="st7" d="M89.88,153.64c4.15-13.51,12.83-24.24,19.27-36.09c6.55-12.04,12.12-25,15.06-39.22
				c1.03-4.94,1.03-9.86,0.74-14.93c0-0.24-0.03-0.5-0.03-0.76c-2.08-6.7-4.73-13.06-8.15-17.88c1.92,2.68,2.18,12.17,2.58,15.77
				c0.55,5.05,0.79,9.96,0.05,14.98c-2.18,14.43-7.07,27.81-12.96,40.4c-5.81,12.38-13.91,23.79-17.35,37.62
				c-0.89,3.6-2.05,10.07-1.52,15.43C87.3,163.53,88.8,157.14,89.88,153.64z"/>
		</g>
		
			<linearGradient id="SVGID_8_" gradientUnits="userSpaceOnUse" x1="2195.1477" y1="1916.313" x2="2171.6133" y2="1850.9667" gradientTransform="matrix(0.8645 0.5026 0.5026 -0.8645 -2755.9268 633.3131)">
			<stop  offset="0" style="stop-color:#56B364"/>
			<stop  offset="1" style="stop-color:#019447"/>
		</linearGradient>
		<path class="st8" d="M65.75,170.63c2.84-5.31,5.36-11.99,6.78-16.61c4.1-13.35,1.29-30.34-0.45-43.98
			c-2.31-18.01-7.18-45.42,2.31-62.25c-7.02,5.65-10.75,16.25-14.33,25.34c-5.15,13.09-9.02,26.73-6.65,41.53
			c2.18,13.56,8.49,24.55,11.15,37.62c1.16,5.78,0.6,10.33-0.47,14.93C64.7,168.34,65.28,169.47,65.75,170.63z"/>
		
			<linearGradient id="SVGID_9_" gradientUnits="userSpaceOnUse" x1="90.0256" y1="172.5239" x2="57.4564" y2="82.0916" gradientTransform="matrix(1 0 0 -1 0 222)">
			<stop  offset="0" style="stop-color:#46AA58"/>
			<stop  offset="1" style="stop-color:#008443"/>
		</linearGradient>
		<path class="st9" d="M72.11,110.03c-2.31-18.01-7.18-45.42,2.31-62.25c-3.05,2.44-5.47,5.84-7.54,9.62
			c-3.52,16.61,0.81,37.64,3.21,52.34c2.21,13.54,5.57,30.36,1.92,43.93c-1.26,4.68-3.58,11.49-6.23,16.96
			c2.84-5.31,5.36-11.99,6.78-16.61C76.66,140.66,73.84,123.68,72.11,110.03z"/>
		
			<linearGradient id="SVGID_10_" gradientUnits="userSpaceOnUse" x1="85.74" y1="32.0464" x2="85.74" y2="65.4614" gradientTransform="matrix(1 0 0 -1 0 222)">
			<stop  offset="0" style="stop-color:#26A956"/>
			<stop  offset="1" style="stop-color:#006C31"/>
		</linearGradient>
		<path class="st10" d="M85.73,160.35c-21,0-38.04,8.44-38.04,18.85c3.42,9.46,69.37,8.81,76.1,0
			C123.79,168.79,106.76,160.35,85.73,160.35z"/>
		
			<linearGradient id="SVGID_11_" gradientUnits="userSpaceOnUse" x1="85.74" y1="32.8125" x2="85.74" y2="59.6509" gradientTransform="matrix(1 0 0 -1 0 222)">
			<stop  offset="0" style="stop-color:#14A750"/>
			<stop  offset="1" style="stop-color:#086736"/>
		</linearGradient>
		<path class="st11" d="M117.59,168.89c-12.25,9.86-28.78,15.14-43.93,12.62c-6.26-1.13-14.22-2.29-15.93-9.1
			c-0.42-2.5,0.47-4.92,2.08-6.99c-7.47,3.44-12.12,8.33-12.12,13.8c3.42,9.46,69.37,8.81,76.1,0
			C123.79,175.41,121.5,171.86,117.59,168.89z"/>
	</g>
	<text transform="matrix(1 0 0 1 150.9686 130.1863)" class="st12 st13 st14">AlgoBreizh</text>
</g>
</svg>
