<?xml version="1.0" encoding="utf-8"?>
<!-- Generator: Adobe Illustrator 24.3.0, SVG Export Plug-In . SVG Version: 6.00 Build 0)  -->
<svg version="1.1" id="Calque_1" xmlns="http://www.w3.org/2000/svg" xmlns:xlink="http://www.w3.org/1999/xlink" x="0px" y="0px"
	 viewBox="0 0 60 80" style="enable-background:new 0 0 60 80;" xml:space="preserve">
<style type="text/css">
	.st0{fill:url(#SVGID_2_);}
	.st1{fill:url(#SVGID_3_);}
	.st2{fill:url(#SVGID_4_);}
	.st3{fill:url(#SVGID_5_);}
	.st4{fill:url(#SVGID_6_);}
	.st5{fill:url(#SVGID_7_);}
	.st6{fill:url(#SVGID_8_);}
	.st7{filter:url(#Adobe_OpacityMaskFilter);}
	.st8{fill:url(#SVGID_9_);}
	.st9{opacity:0.88;mask:url(#SVGID_1_);fill:#020203;enable-background:new    ;}
	.st10{fill:url(#SVGID_10_);}
	.st11{fill:url(#SVGID_11_);}
</style>
<g>
	
		<linearGradient id="SVGID_2_" gradientUnits="userSpaceOnUse" x1="41.4553" y1="77.8346" x2="25.9279" y2="34.7208" gradientTransform="matrix(1 0 0 -1 0 82)">
		<stop  offset="0" style="stop-color:#A6CA62"/>
		<stop  offset="1" style="stop-color:#47AE4B"/>
	</linearGradient>
	<path class="st0" d="M31.91,68.08c-1.69-0.12-4.2-3.76-5.02-5.39c-1.81-3.58-1.34-7.23-0.19-10.99c1.97-6.46,4.06-13.38,5.07-20.23
		c0.9-6.21,1.4-12.94,0.26-19.15c-0.69-3.77-2.08-7.21-3.1-10.82c3.48,2.35,6.38,8.11,8.2,12.37c1.77,4.18,3.4,10.3,2.68,15.01
		c-1.43,9.49-7.72,16.59-8.94,26.09C30.45,58.23,29.69,65.56,31.91,68.08z"/>
	
		<linearGradient id="SVGID_3_" gradientUnits="userSpaceOnUse" x1="41.4413" y1="77.8397" x2="25.9138" y2="34.7258" gradientTransform="matrix(1 0 0 -1 0 82)">
		<stop  offset="0" style="stop-color:#9AC557"/>
		<stop  offset="1" style="stop-color:#33A448"/>
	</linearGradient>
	<path class="st1" d="M31.66,67.76c0.07,0.11,0.14,0.22,0.22,0.32c-1.67-0.24-4.02-4.05-4.77-5.75c-1.64-3.71-1-7.31,0.31-10.98
		c2.27-6.31,4.67-13.07,5.97-19.82c1.19-6.13,1.98-12.81,1.13-19.1c-0.29-2.11-0.79-4.13-1.33-6.13c-1.28-1.98-2.73-3.72-4.29-4.77
		c1.03,3.61,2.42,7.05,3.1,10.82c1.14,6.21,0.66,12.94-0.26,19.15c-1,6.83-3.09,13.77-5.07,20.23c-1.15,3.77-1.62,7.41,0.19,10.99
		c0.83,1.64,3.33,5.28,5.02,5.39C31.83,67.98,31.74,67.87,31.66,67.76z"/>
	
		<linearGradient id="SVGID_4_" gradientUnits="userSpaceOnUse" x1="-421.5604" y1="-117.9119" x2="-438.2871" y2="-164.3555" gradientTransform="matrix(0.9945 -0.1052 -0.1052 -0.9945 457.3472 -152.9389)">
		<stop  offset="0" style="stop-color:#56B364"/>
		<stop  offset="1" style="stop-color:#019447"/>
	</linearGradient>
	<path class="st2" d="M50.59,26.95c-0.97-5.79-2.76-13.25-5.99-17.77c0.9,1.26,1.03,5.74,1.21,7.44c0.26,2.38,0.37,4.7,0.02,7.06
		c-1.03,6.8-3.33,13.11-6.11,19.05c-2.74,5.84-6.56,11.22-8.18,17.73c-0.5,1.98-1.16,5.85-0.52,8.53c0.47,0.36,0.95,0.68,1.45,0.99
		c0.76-3.45,2.88-6.88,4-9.6c2.4-5.81,6.87-10.2,9.8-15.6C49.25,39.3,51.72,33.74,50.59,26.95z"/>
	<g>
		
			<linearGradient id="SVGID_5_" gradientUnits="userSpaceOnUse" x1="32.8459" y1="13.2576" x2="32.5146" y2="12.3377" gradientTransform="matrix(1 0 0 -1 0 82)">
			<stop  offset="0" style="stop-color:#46AA58"/>
			<stop  offset="1" style="stop-color:#008443"/>
		</linearGradient>
		<path class="st3" d="M32.41,69.91c0.02,0.01,0.05,0.02,0.06,0.04c0.09-0.4,0.2-0.79,0.31-1.19
			C32.64,69.14,32.52,69.53,32.41,69.91z"/>
		
			<linearGradient id="SVGID_6_" gradientUnits="userSpaceOnUse" x1="49.5613" y1="72.9818" x2="33.4212" y2="28.1668" gradientTransform="matrix(1 0 0 -1 0 82)">
			<stop  offset="0" style="stop-color:#46AA58"/>
			<stop  offset="1" style="stop-color:#008443"/>
		</linearGradient>
		<path class="st4" d="M31.93,60.52c1.96-6.37,6.05-11.43,9.08-17.02c3.09-5.68,5.71-11.79,7.1-18.49c0.48-2.33,0.48-4.65,0.35-7.04
			c0-0.11-0.01-0.24-0.01-0.36c-0.98-3.16-2.23-6.16-3.84-8.43c0.9,1.26,1.03,5.74,1.21,7.44c0.26,2.38,0.37,4.7,0.02,7.06
			c-1.03,6.8-3.33,13.11-6.11,19.05c-2.74,5.84-6.56,11.22-8.18,17.73c-0.42,1.7-0.97,4.75-0.72,7.27
			C30.71,65.18,31.42,62.17,31.93,60.52z"/>
	</g>
	
		<linearGradient id="SVGID_7_" gradientUnits="userSpaceOnUse" x1="1952.5474" y1="1737.6221" x2="1941.4523" y2="1706.8151" gradientTransform="matrix(0.8645 0.5026 0.5026 -0.8645 -2522.2917 546.5963)">
		<stop  offset="0" style="stop-color:#56B364"/>
		<stop  offset="1" style="stop-color:#019447"/>
	</linearGradient>
	<path class="st5" d="M20.55,68.52c1.34-2.5,2.53-5.65,3.2-7.83c1.93-6.3,0.61-14.3-0.21-20.73c-1.09-8.49-3.38-21.42,1.09-29.35
		c-3.31,2.66-5.07,7.66-6.75,11.95c-2.43,6.17-4.25,12.6-3.14,19.58c1.03,6.39,4,11.58,5.25,17.73c0.55,2.73,0.29,4.87-0.22,7.04
		C20.05,67.45,20.33,67.98,20.55,68.52z"/>
	
		<linearGradient id="SVGID_8_" gradientUnits="userSpaceOnUse" x1="31.9937" y1="70.5904" x2="16.6393" y2="27.9569" gradientTransform="matrix(1 0 0 -1 0 82)">
		<stop  offset="0" style="stop-color:#46AA58"/>
		<stop  offset="1" style="stop-color:#008443"/>
	</linearGradient>
	<path class="st6" d="M23.55,39.96c-1.09-8.49-3.38-21.42,1.09-29.35c-1.44,1.15-2.58,2.75-3.56,4.54
		c-1.66,7.83,0.38,17.75,1.51,24.67c1.04,6.38,2.63,14.31,0.9,20.71c-0.59,2.21-1.69,5.42-2.94,7.99c1.34-2.5,2.53-5.65,3.2-7.83
		C25.69,54.4,24.37,46.39,23.55,39.96z"/>
	<defs>
		<filter id="Adobe_OpacityMaskFilter" filterUnits="userSpaceOnUse" x="3.28" y="67.62" width="53.36" height="10.88">
			<feColorMatrix  type="matrix" values="1 0 0 0 0  0 1 0 0 0  0 0 1 0 0  0 0 0 1 0"/>
		</filter>
	</defs>
	<mask maskUnits="userSpaceOnUse" x="3.28" y="67.62" width="53.36" height="10.88" id="SVGID_1_">
		<g class="st7">
			
				<radialGradient id="SVGID_9_" cx="29.9671" cy="-17655.1895" r="26.6823" gradientTransform="matrix(1 0 0 -0.2039 0 -3526.8328)" gradientUnits="userSpaceOnUse">
				<stop  offset="0" style="stop-color:#FFFFFF"/>
				<stop  offset="1" style="stop-color:#020203"/>
			</radialGradient>
			<ellipse class="st8" cx="29.97" cy="73.06" rx="26.68" ry="5.44"/>
		</g>
	</mask>
	<ellipse class="st9" cx="29.97" cy="73.06" rx="26.68" ry="5.44"/>
	
		<linearGradient id="SVGID_10_" gradientUnits="userSpaceOnUse" x1="29.9733" y1="4.3635" x2="29.9733" y2="20.1167" gradientTransform="matrix(1 0 0 -1 0 82)">
		<stop  offset="0" style="stop-color:#26A956"/>
		<stop  offset="1" style="stop-color:#006C31"/>
	</linearGradient>
	<path class="st10" d="M29.97,63.68c-9.9,0-17.93,3.98-17.93,8.89c1.61,4.46,32.71,4.15,35.88,0
		C47.91,67.66,39.88,63.68,29.97,63.68z"/>
	
		<linearGradient id="SVGID_11_" gradientUnits="userSpaceOnUse" x1="29.9733" y1="4.7247" x2="29.9733" y2="17.3774" gradientTransform="matrix(1 0 0 -1 0 82)">
		<stop  offset="0" style="stop-color:#14A750"/>
		<stop  offset="1" style="stop-color:#086736"/>
	</linearGradient>
	<path class="st11" d="M44.99,67.71c-5.78,4.65-13.57,7.14-20.71,5.95c-2.95-0.53-6.7-1.08-7.51-4.29c-0.2-1.18,0.22-2.32,0.98-3.3
		c-3.52,1.62-5.71,3.93-5.71,6.51c1.61,4.46,32.71,4.15,35.88,0C47.91,70.78,46.83,69.11,44.99,67.71z"/>
</g>
</svg>
